<?xml version="1.0" encoding="UTF-8"?><svg id="Capa_2" xmlns="http://www.w3.org/2000/svg" viewBox="0 0 385.57 295.92"><defs><style>.cls-1{fill:#0095da;}.cls-2{fill:#fff;}.cls-3{fill:#57c6d0;}.cls-4{fill:#231f20;}</style></defs><g id="Capa_1-2"><g><g><rect class="cls-3" x="223.92" y="0" width="47.2" height="157.32" rx="23.39" ry="23.39"/><g><rect class="cls-1" x="145.26" y="0" width="47.2" height="157.32" rx="23.33" ry="23.33"/><rect class="cls-1" x="145.26" y="0" width="47.2" height="157.32" rx="23.6" ry="23.6" transform="translate(247.52 -90.2) rotate(90)"/></g><g><circle class="cls-2" cx="247.52" cy="20.88" r="2.75"/><circle class="cls-2" cx="235.23" cy="20.88" r="2.75"/><circle class="cls-2" cx="235.23" cy="33.18" r="2.75"/><circle class="cls-2" cx="235.23" cy="45.43" r="2.75"/><circle class="cls-2" cx="247.51" cy="45.43" r="2.75"/><circle class="cls-2" cx="259.8" cy="45.43" r="2.75"/><circle class="cls-2" cx="247.52" cy="33.18" r="2.75"/><circle class="cls-2" cx="259.8" cy="33.18" r="2.75"/><circle class="cls-2" cx="259.8" cy="20.88" r="2.75"/></g><g><circle class="cls-2" cx="247.52" cy="111.2" r="2.75"/><circle class="cls-2" cx="235.23" cy="111.2" r="2.75"/><circle class="cls-2" cx="235.23" cy="123.49" r="2.75"/><circle class="cls-2" cx="235.23" cy="135.74" r="2.75"/><circle class="cls-2" cx="247.52" cy="135.74" r="2.75"/><circle class="cls-2" cx="259.8" cy="135.74" r="2.75"/><circle class="cls-2" cx="247.52" cy="123.49" r="2.75"/><circle class="cls-2" cx="259.8" cy="123.49" r="2.75"/><circle class="cls-2" cx="259.8" cy="111.2" r="2.75"/></g></g><g><g><path class="cls-4" d="M0,246.47v-65.58H25.37c11.02,0,19.27,3.27,24.74,9.8,5.48,6.53,8.22,14.09,8.22,22.68,0,9.8-2.94,17.77-8.82,23.9-5.88,6.13-13.51,9.2-22.89,9.2H0Zm20.13-15.09h5.24c3.33,0,6.14-1.62,8.43-4.85,2.29-3.23,3.44-7.64,3.44-13.21,0-4.77-1.02-8.89-3.05-12.35-2.03-3.46-4.97-5.19-8.82-5.19h-5.24v35.6Z"/><path class="cls-4" d="M84.51,246.47h-18.35v-48.86h15.95v10.09c1.83-7.33,6.07-11,12.73-11,.67,0,1.6,.06,2.79,.19v17.06c-1.35-.32-2.55-.48-3.6-.48-6.34,0-9.51,3.54-9.51,10.62v22.39Z"/><path class="cls-4" d="M118.1,228.93v17.54h-18.26v-17.54h18.26Z"/><path class="cls-4" d="M208.47,180.88v65.58h-20.13v-25.51h-15.37v25.51h-20.13v-65.58h20.13v24.12h15.37v-24.12h20.13Z"/><path class="cls-4" d="M243.07,247.47c-8.1,0-14.54-2.52-19.32-7.57-4.77-5.04-7.16-10.96-7.16-17.75,0-7.3,2.49-13.39,7.47-18.26,4.98-4.87,11.46-7.3,19.44-7.3s14.5,2.4,19.39,7.21c4.88,4.8,7.33,10.83,7.33,18.07s-2.47,13.4-7.42,18.28c-4.95,4.88-11.52,7.33-19.72,7.33Zm.29-11.63c2.98,0,4.8-1.54,5.45-4.64,.66-3.09,.98-6.32,.98-9.68,0-4.58-.46-7.88-1.39-9.9-.93-2.02-2.6-3.03-5-3.03-2.21,0-3.83,1.04-4.85,3.12-1.03,2.08-1.54,5.51-1.54,10.28,0,5.61,.53,9.31,1.59,11.12,1.06,1.81,2.64,2.71,4.76,2.71Z"/><path class="cls-4" d="M296.83,261.89h-19.17v-64.29h17.63v6.92c2.47-5.29,7.06-7.93,13.79-7.93,5.83,0,10.39,2.27,13.69,6.8,3.3,4.53,4.95,10.71,4.95,18.52s-1.69,14.03-5.07,18.64c-3.38,4.61-7.84,6.92-13.38,6.92s-9.59-2.08-12.44-6.25v20.66Zm0-33.3c0,2.18,.5,3.87,1.49,5.07s2.23,1.8,3.7,1.8c2.31,0,3.89-1.06,4.76-3.19,.87-2.13,1.3-5.41,1.3-9.83,0-5.09-.5-8.67-1.49-10.74s-2.48-3.1-4.47-3.1c-1.19,0-2.36,.46-3.53,1.39-1.17,.93-1.75,2.45-1.75,4.56v14.03Z"/><path class="cls-4" d="M367.65,228.93l17.87,1.2c-1.06,4.8-3.76,8.9-8.1,12.28-4.34,3.38-10.21,5.07-17.61,5.07-8.23,0-14.8-2.38-19.7-7.14s-7.35-10.66-7.35-17.7,2.42-13.47,7.25-18.5c4.84-5.03,11.29-7.54,19.36-7.54s14.13,2.37,18.95,7.11c4.82,4.74,7.23,11.19,7.23,19.36,0,.67-.02,1.6-.05,2.79h-32.72c.06,3.08,.61,5.36,1.63,6.85,1.02,1.49,2.98,2.23,5.86,2.23,4.16,0,6.61-2,7.35-6.01Zm-1.3-12.68c-.03-3.3-.69-5.52-1.99-6.65-1.29-1.14-2.9-1.71-4.81-1.71-4.53,0-6.8,2.79-6.8,8.36h13.6Z"/></g><g><path class="cls-4" d="M58.9,295.62v-17.61h3.51l4.17,12.47c.38,1.16,.66,2.03,.84,2.61,.2-.64,.51-1.58,.94-2.82l4.22-12.25h3.14v17.61h-2.25v-14.74l-5.12,14.74h-2.1l-5.09-14.99v14.99h-2.25Z"/><path class="cls-4" d="M79.52,295.62v-17.61h12.73v2.08h-10.4v5.39h9.74v2.07h-9.74v5.99h10.81v2.08h-13.14Zm4.81-18.69l1.6-3.36h2.84l-2.64,3.36h-1.79Z"/><path class="cls-4" d="M95.88,295.62v-17.61h6.07c1.37,0,2.41,.08,3.14,.25,1.01,.23,1.87,.65,2.58,1.26,.93,.78,1.62,1.79,2.08,3.01,.46,1.22,.69,2.62,.69,4.19,0,1.34-.16,2.52-.47,3.56-.31,1.03-.71,1.89-1.2,2.56-.49,.68-1.02,1.21-1.6,1.6-.58,.39-1.28,.68-2.1,.88-.82,.2-1.76,.3-2.83,.3h-6.36Zm2.33-2.08h3.76c1.16,0,2.07-.11,2.73-.32s1.19-.52,1.58-.91c.55-.55,.98-1.3,1.29-2.23,.31-.93,.46-2.06,.46-3.39,0-1.84-.3-3.26-.91-4.25-.6-.99-1.34-1.65-2.2-1.99-.62-.24-1.63-.36-3.02-.36h-3.7v13.46Z"/><path class="cls-4" d="M114.05,295.62v-17.61h2.33v17.61h-2.33Z"/><path class="cls-4" d="M133.05,289.45l2.33,.59c-.49,1.91-1.37,3.37-2.64,4.38-1.27,1.01-2.82,1.51-4.66,1.51s-3.44-.39-4.63-1.16c-1.19-.77-2.09-1.89-2.72-3.36-.62-1.47-.93-3.04-.93-4.72,0-1.83,.35-3.43,1.05-4.8,.7-1.37,1.7-2.4,2.99-3.11s2.72-1.06,4.27-1.06c1.76,0,3.24,.45,4.45,1.35s2.04,2.16,2.51,3.78l-2.29,.54c-.41-1.28-1-2.21-1.78-2.8-.78-.58-1.75-.88-2.93-.88-1.35,0-2.48,.32-3.39,.97-.91,.65-1.55,1.52-1.92,2.61s-.55,2.22-.55,3.38c0,1.5,.22,2.81,.65,3.92,.44,1.12,1.12,1.95,2.04,2.51,.92,.55,1.92,.83,2.99,.83,1.31,0,2.41-.38,3.32-1.13s1.52-1.87,1.84-3.35Z"/><path class="cls-4" d="M137.55,287.04c0-2.92,.78-5.21,2.35-6.87,1.57-1.65,3.6-2.48,6.08-2.48,1.63,0,3.09,.39,4.4,1.17,1.31,.78,2.3,1.86,2.99,3.25,.69,1.39,1.03,2.97,1.03,4.73s-.36,3.38-1.08,4.79-1.74,2.48-3.06,3.2c-1.32,.73-2.75,1.09-4.28,1.09-1.66,0-3.14-.4-4.44-1.2-1.31-.8-2.29-1.89-2.97-3.28-.67-1.39-1.01-2.85-1.01-4.4Zm2.4,.04c0,2.12,.57,3.79,1.71,5.02,1.14,1.22,2.57,1.83,4.29,1.83s3.2-.62,4.33-1.85,1.7-2.98,1.7-5.25c0-1.43-.24-2.68-.73-3.75s-1.19-1.9-2.13-2.49c-.93-.59-1.98-.88-3.14-.88-1.65,0-3.07,.57-4.26,1.7-1.19,1.13-1.78,3.03-1.78,5.68Z"/><path class="cls-4" d="M156.6,289.96l2.2-.19c.1,.88,.35,1.6,.73,2.17s.97,1.02,1.77,1.37c.8,.35,1.7,.52,2.7,.52,.89,0,1.67-.13,2.35-.4,.68-.26,1.19-.63,1.52-1.09,.33-.46,.5-.96,.5-1.51s-.16-1.04-.48-1.45-.85-.76-1.59-1.04c-.47-.18-1.52-.47-3.14-.86-1.62-.39-2.75-.75-3.4-1.1-.84-.44-1.47-.99-1.88-1.64-.41-.65-.62-1.38-.62-2.19,0-.89,.25-1.72,.76-2.49s1.24-1.36,2.21-1.76,2.05-.6,3.23-.6c1.31,0,2.46,.21,3.45,.63s1.76,1.04,2.3,1.86c.54,.82,.82,1.74,.87,2.77l-2.23,.17c-.12-1.11-.53-1.95-1.22-2.52-.69-.57-1.72-.85-3.07-.85s-2.44,.26-3.08,.78c-.64,.52-.97,1.14-.97,1.87,0,.63,.23,1.15,.68,1.56,.45,.41,1.62,.83,3.51,1.26,1.89,.43,3.19,.8,3.9,1.12,1.03,.47,1.78,1.07,2.27,1.8,.49,.73,.73,1.56,.73,2.51s-.27,1.82-.8,2.65c-.54,.83-1.31,1.47-2.31,1.93-1.01,.46-2.14,.69-3.39,.69-1.59,0-2.93-.23-4.01-.7-1.08-.46-1.92-1.16-2.53-2.1-.61-.93-.94-1.99-.97-3.17Z"/><path class="cls-4" d="M177.35,295.62l6.76-17.61h2.51l7.21,17.61h-2.66l-2.05-5.33h-7.36l-1.93,5.33h-2.48Zm5.08-7.23h5.97l-1.84-4.88c-.56-1.48-.98-2.7-1.25-3.65-.22,1.13-.54,2.25-.95,3.36l-1.93,5.17Z"/><path class="cls-4" d="M201.17,295.62v-17.61h6.07c1.37,0,2.42,.08,3.14,.25,1.01,.23,1.87,.65,2.58,1.26,.93,.78,1.62,1.79,2.08,3.01,.46,1.22,.69,2.62,.69,4.19,0,1.34-.16,2.52-.47,3.56-.31,1.03-.71,1.89-1.2,2.56-.49,.68-1.02,1.21-1.6,1.6-.58,.39-1.28,.68-2.1,.88s-1.76,.3-2.83,.3h-6.36Zm2.33-2.08h3.76c1.16,0,2.07-.11,2.73-.32,.66-.22,1.19-.52,1.58-.91,.55-.55,.98-1.3,1.29-2.23,.31-.93,.46-2.06,.46-3.39,0-1.84-.3-3.26-.91-4.25-.6-.99-1.34-1.65-2.2-1.99-.63-.24-1.63-.36-3.02-.36h-3.7v13.46Z"/><path class="cls-4" d="M218.23,287.04c0-2.92,.78-5.21,2.35-6.87,1.57-1.65,3.6-2.48,6.08-2.48,1.63,0,3.09,.39,4.4,1.17,1.31,.78,2.3,1.86,2.99,3.25,.69,1.39,1.03,2.97,1.03,4.73s-.36,3.38-1.08,4.79-1.74,2.48-3.06,3.2c-1.32,.73-2.75,1.09-4.28,1.09-1.66,0-3.14-.4-4.45-1.2-1.31-.8-2.29-1.89-2.97-3.28-.67-1.39-1.01-2.85-1.01-4.4Zm2.4,.04c0,2.12,.57,3.79,1.71,5.02,1.14,1.22,2.57,1.83,4.29,1.83s3.2-.62,4.33-1.85c1.13-1.23,1.7-2.98,1.7-5.25,0-1.43-.24-2.68-.73-3.75s-1.19-1.9-2.13-2.49c-.93-.59-1.98-.88-3.14-.88-1.65,0-3.07,.57-4.26,1.7s-1.78,3.03-1.78,5.68Z"/><path class="cls-4" d="M238.01,295.62v-17.61h3.51l4.17,12.47c.38,1.16,.66,2.03,.84,2.61,.2-.64,.51-1.58,.94-2.82l4.22-12.25h3.14v17.61h-2.25v-14.74l-5.12,14.74h-2.1l-5.09-14.99v14.99h-2.25Z"/><path class="cls-4" d="M258.97,295.62v-17.61h2.33v17.61h-2.33Z"/><path class="cls-4" d="M277.98,289.45l2.33,.59c-.49,1.91-1.37,3.37-2.64,4.38-1.27,1.01-2.82,1.51-4.66,1.51s-3.44-.39-4.63-1.16-2.09-1.89-2.72-3.36c-.62-1.47-.93-3.04-.93-4.72,0-1.83,.35-3.43,1.05-4.8,.7-1.37,1.7-2.4,2.99-3.11,1.29-.71,2.72-1.06,4.27-1.06,1.76,0,3.24,.45,4.45,1.35,1.2,.9,2.04,2.16,2.51,3.78l-2.29,.54c-.41-1.28-1-2.21-1.78-2.8-.78-.58-1.75-.88-2.93-.88-1.35,0-2.49,.32-3.39,.97-.91,.65-1.55,1.52-1.92,2.61s-.55,2.22-.55,3.38c0,1.5,.22,2.81,.65,3.92,.44,1.12,1.12,1.95,2.04,2.51,.92,.55,1.92,.83,2.99,.83,1.31,0,2.41-.38,3.32-1.13s1.52-1.87,1.84-3.35Z"/><path class="cls-4" d="M283.58,295.62v-17.61h2.33v17.61h-2.33Z"/><path class="cls-4" d="M289.92,295.62v-17.61h2.33v15.53h8.67v2.08h-11Z"/><path class="cls-4" d="M304.1,295.62v-17.61h2.33v17.61h-2.33Z"/><path class="cls-4" d="M309.83,287.04c0-2.92,.78-5.21,2.35-6.87,1.57-1.65,3.6-2.48,6.08-2.48,1.62,0,3.09,.39,4.4,1.17,1.31,.78,2.3,1.86,2.99,3.25,.69,1.39,1.03,2.97,1.03,4.73s-.36,3.38-1.08,4.79-1.74,2.48-3.06,3.2c-1.32,.73-2.75,1.09-4.28,1.09-1.66,0-3.14-.4-4.44-1.2-1.31-.8-2.29-1.89-2.97-3.28-.67-1.39-1.01-2.85-1.01-4.4Zm2.4,.04c0,2.12,.57,3.79,1.71,5.02,1.14,1.22,2.57,1.83,4.29,1.83s3.2-.62,4.33-1.85c1.13-1.23,1.7-2.98,1.7-5.25,0-1.43-.24-2.68-.73-3.75s-1.19-1.9-2.13-2.49-1.98-.88-3.14-.88c-1.65,0-3.07,.57-4.26,1.7-1.19,1.13-1.78,3.03-1.78,5.68Z"/></g></g></g></g></svg>